<svg xmlns="http://www.w3.org/2000/svg" viewBox="0 0 48 48">
  <defs>
    <linearGradient id="tiktok-gradient" x1="0%" y1="0%" x2="100%" y2="100%">
      <stop offset="0%" style="stop-color:#00f2ea;stop-opacity:1" />
      <stop offset="100%" style="stop-color:#ff0050;stop-opacity:1" />
    </linearGradient>
  </defs>
  <rect width="48" height="48" rx="10" fill="url(#tiktok-gradient)"/>
  <path d="M34 18v-4c-1.5 0-2.9-.5-4-1.4-1.4-1.2-2.4-2.9-2.7-4.6h-4.6v22c0 2.5-2 4.5-4.5 4.5s-4.5-2-4.5-4.5 2-4.5 4.5-4.5c.5 0 1 .1 1.4.2v-4.7c-.5-.1-.9-.1-1.4-.1-5 0-9 4-9 9s4 9 9 9 9-4 9-9V17c1.9 1.3 4.1 2 6.5 2v-4.6c-.9 0-1.8-.2-2.7-.5z" fill="#ffffff"/>
</svg>
