<svg xmlns="http://www.w3.org/2000/svg" viewBox="0 0 48 48">
  <rect width="48" height="48" rx="10" fill="#25D366"/>
  <path d="M24 8c-8.8 0-16 7.2-16 16 0 2.8.7 5.4 2 7.7L8 40l8.5-2c2.2 1.2 4.8 1.9 7.5 1.9 8.8 0 16-7.2 16-16S32.8 8 24 8zm8.5 22.5c-.4 1.1-2 2.1-3.3 2.4-.9.2-2 .3-3.3-.2-1.3-.5-3-1.2-5.2-2.9-3.7-2.9-6-7.2-6.2-7.5-.2-.3-1.7-2.3-1.7-4.4s1.1-3.1 1.5-3.5c.4-.4.8-.5 1.1-.5h.8c.3 0 .6-.1.9.7.4 1 1.3 3.1 1.4 3.3.1.2.2.4.1.7-.1.3-.2.4-.4.6-.2.2-.4.5-.6.7-.2.2-.4.4-.2.8.2.4 1 1.6 2.1 2.6 1.5 1.3 2.7 1.7 3.1 1.9.4.2.6.1.8-.1.2-.2 1-1.1 1.2-1.5.2-.4.5-.3.8-.2.3.1 2 .9 2.3 1.1.4.2.6.3.7.4.1.2.1 1.1-.3 2.2z" fill="#ffffff"/>
</svg>
